
<svg version="1.0" xmlns="http://www.w3.org/2000/svg"
 width="665.000000pt" height="655.000000pt" viewBox="0 0 665.000000 655.000000"
 preserveAspectRatio="xMidYMid meet">

<g transform="translate(0.000000,655.000000) scale(0.100000,-0.100000)"
fill="#000000" stroke="none">
<path d="M3354 6195 c-241 -37 -461 -160 -529 -296 -32 -63 -34 -145 -4 -206
74 -153 375 -263 679 -250 128 6 260 25 260 38 0 13 -21 11 -87 -6 -116 -30
-259 -12 -338 43 -89 62 -117 154 -91 292 22 114 73 216 144 289 66 66 119 94
182 95 60 1 113 -36 254 -176 l108 -108 99 62 c113 72 114 67 -9 124 -209 97
-452 133 -668 99z"/>
<path d="M4099 5818 c-91 -128 -175 -251 -186 -273 -76 -150 -12 -257 243
-412 177 -108 335 -131 460 -68 32 17 184 126 337 244 224 172 275 216 266
227 -6 8 -15 14 -20 14 -5 0 -78 -60 -162 -132 -182 -159 -351 -293 -415 -330
-108 -63 -206 -61 -304 5 -111 75 -133 139 -78 232 16 28 130 158 254 290 125
132 226 242 226 246 0 15 -348 163 -430 184 -23 5 -37 -11 -191 -227z"/>
<path d="M2380 5914 c-86 -18 -199 -58 -282 -100 -78 -39 -90 -53 -20 -23 59
26 141 35 170 20 31 -17 28 -65 -7 -126 -16 -27 -97 -131 -180 -229 -83 -99
-149 -181 -148 -183 2 -1 44 15 93 36 121 53 301 108 436 136 124 24 117 20
182 137 30 54 33 66 19 63 -10 -3 -69 -14 -132 -25 -93 -17 -208 -48 -356 -95
-11 -3 75 42 190 102 116 59 229 122 252 138 47 33 77 80 72 110 -10 52 -146
70 -289 39z"/>
<path d="M1963 5735 c-55 -37 -72 -55 -51 -55 11 1 117 90 106 90 -2 0 -27
-16 -55 -35z"/>
<path d="M1538 5621 c-225 -72 -459 -297 -589 -566 -81 -169 -116 -351 -80
-418 52 -97 186 -29 511 260 223 198 372 381 417 513 27 79 28 114 5 159 -35
70 -142 91 -264 52z m-179 -249 c101 -47 157 -258 99 -372 -33 -64 -67 -85
-136 -84 -142 1 -244 128 -229 286 14 154 134 231 266 170z"/>
<path d="M4953 5123 c-221 -153 -402 -281 -403 -286 0 -4 27 -40 61 -80 93
-110 182 -249 252 -394 46 -96 66 -130 76 -124 15 10 -7 58 -97 210 -49 85
-53 95 -38 106 9 7 214 112 456 234 380 192 439 225 431 239 -33 61 -305 372
-325 372 -6 0 -192 -125 -413 -277z"/>
<path d="M3292 5112 c-40 -81 -72 -151 -72 -156 1 -34 186 -306 209 -306 4 0
15 8 23 18 23 25 128 239 128 259 0 15 -205 335 -213 332 -1 0 -35 -66 -75
-147z"/>
<path d="M3018 5049 c-10 -26 11 -213 32 -287 40 -143 154 -326 273 -439 158
-150 390 -218 534 -158 98 41 186 139 199 221 5 38 1 52 -34 118 -22 41 -73
125 -112 185 -39 61 -73 117 -76 126 -10 25 -23 17 -52 -31 -96 -165 -160
-214 -278 -214 -116 0 -248 91 -353 244 -28 40 -91 162 -117 225 -8 18 -12 21
-16 10z"/>
<path d="M2500 4779 c-80 -8 -242 -44 -302 -68 -17 -6 -28 -18 -27 -28 0 -10
17 -72 37 -138 l37 -120 175 3 c270 5 390 -25 474 -118 40 -44 85 -134 88
-175 3 -37 -22 -73 -67 -95 -84 -41 -178 -19 -409 97 l-149 75 6 -89 c6 -97
31 -187 82 -298 l33 -73 109 -56 c59 -31 138 -78 174 -105 163 -121 259 -304
247 -471 -4 -57 -8 -66 -41 -96 -55 -51 -137 -50 -272 3 -305 121 -847 529
-964 726 -71 121 -84 174 -89 365 -2 94 -8 172 -12 172 -17 0 -83 -88 -115
-155 -124 -253 -10 -531 381 -931 202 -207 545 -469 809 -621 192 -110 392
-148 512 -98 61 26 92 63 115 138 18 60 20 86 15 196 -6 145 -32 258 -95 416
-22 55 -38 102 -36 104 2 2 61 -31 133 -73 71 -42 149 -85 173 -96 127 -58
213 7 327 244 68 141 117 196 175 196 55 0 175 -60 222 -112 137 -148 306
-675 291 -902 -6 -90 -47 -188 -98 -230 -87 -74 -255 -56 -426 45 -168 99
-395 405 -437 587 l-13 57 -18 -34 c-40 -79 6 -357 92 -556 146 -339 414 -627
728 -784 141 -70 233 -88 316 -60 126 43 187 198 175 447 -30 601 -398 1469
-774 1823 -103 97 -207 140 -345 141 -122 1 -162 -36 -290 -261 -96 -169 -134
-214 -197 -231 -84 -23 -168 22 -310 165 l-85 85 40 0 c70 0 115 19 165 70
117 116 147 275 90 478 -64 227 -181 373 -339 422 -72 23 -202 31 -311 19z"/>
<path d="M728 4693 c-46 -70 -115 -216 -151 -319 -51 -148 -54 -170 -11 -94
45 81 125 201 171 258 l34 42 -8 77 -8 77 -27 -41z"/>
<path d="M5862 4721 c-11 -6 -3 -28 36 -97 52 -93 128 -261 121 -267 -2 -2
-236 -68 -519 -147 -283 -79 -516 -144 -518 -145 -1 -1 7 -41 18 -89 12 -48
29 -142 38 -210 l17 -122 555 67 c305 37 558 64 562 60 11 -10 28 -215 28
-343 0 -113 1 -118 21 -118 20 0 21 3 15 83 -39 487 -132 863 -299 1209 -47
97 -65 126 -75 119z"/>
<path d="M955 4460 c-4 -17 -5 -34 -2 -36 2 -3 7 10 11 27 8 42 0 50 -9 9z"/>
<path d="M855 4158 c-48 -113 -124 -230 -169 -257 -93 -58 -159 9 -179 179 -7
60 -31 -199 -31 -335 1 -250 47 -449 100 -428 24 9 62 104 133 338 39 127 97
311 130 409 34 99 59 181 58 182 -2 2 -20 -38 -42 -88z"/>
<path d="M844 3242 c-124 -44 -239 -152 -305 -287 -51 -106 -70 -178 -76 -303
-17 -314 138 -626 393 -795 76 -50 94 -56 94 -33 0 8 -33 32 -72 53 -130 67
-209 166 -244 306 -56 217 87 411 366 497 52 16 135 34 185 41 123 16 348 7
400 -15 44 -19 95 -63 95 -82 0 -7 -42 -109 -94 -227 -125 -285 -119 -257 -49
-257 32 0 95 3 141 7 l82 6 -6 81 c-10 144 -43 346 -68 429 -82 267 -276 483
-504 562 -104 36 -262 44 -338 17z"/>
<path d="M5966 2889 c-3 -8 -16 -63 -30 -124 -14 -60 -40 -155 -59 -209 l-35
-99 32 -26 c17 -14 56 -48 86 -76 30 -27 67 -60 81 -73 l26 -23 26 109 c26
105 61 307 70 404 l4 47 -83 36 c-116 49 -113 49 -118 34z"/>
<path d="M5726 2205 c-9 -26 -7 -32 5 -12 6 10 9 21 6 23 -2 3 -7 -2 -11 -11z"/>
<path d="M5976 2025 c-9 -26 -7 -32 5 -12 6 10 9 21 6 23 -2 3 -7 -2 -11 -11z"/>
<path d="M1448 1989 c-179 -24 -311 -120 -370 -269 -32 -81 -31 -220 1 -319
56 -171 198 -321 400 -421 250 -126 559 -116 733 22 56 44 112 134 133 213 80
296 -213 660 -610 758 -80 20 -205 27 -287 16z m673 -239 c45 -25 10 -155 -73
-272 -59 -82 -192 -216 -273 -273 -84 -60 -221 -124 -296 -137 -234 -41 -252
170 -34 389 92 92 184 155 318 218 153 73 303 104 358 75z"/>
<path d="M5956 1975 c-9 -26 -7 -32 5 -12 6 10 9 21 6 23 -2 3 -7 -2 -11 -11z"/>
<path d="M5503 1873 c-39 -49 -97 -113 -127 -143 -31 -30 -56 -60 -56 -66 0
-12 150 -416 157 -424 12 -13 244 272 288 353 l17 32 -97 160 c-54 88 -100
163 -104 168 -4 4 -39 -32 -78 -80z"/>
<path d="M5912 1875 c-17 -37 -14 -45 4 -12 9 16 14 31 11 33 -2 2 -9 -7 -15
-21z"/>
<path d="M5195 1560 c-3 -5 17 -71 46 -147 64 -170 72 -238 39 -304 -46 -89
-208 -222 -305 -249 -42 -12 -49 -11 -73 7 -34 25 -36 35 -58 261 -10 106 -21
192 -25 192 -3 0 -42 -16 -85 -37 -43 -20 -119 -51 -169 -69 l-90 -32 -13
-222 c-15 -249 -12 -268 43 -294 99 -47 305 22 514 172 189 135 295 267 295
367 0 52 -90 365 -105 365 -4 0 -11 -4 -14 -10z"/>
<path d="M4160 1109 c-270 -14 -432 -46 -597 -117 -425 -183 -475 -507 -92
-603 72 -19 102 -21 219 -16 154 6 256 28 388 83 91 38 196 97 247 139 54 44
8 26 -57 -23 -104 -78 -250 -131 -364 -132 -65 0 -136 26 -172 63 -75 77 -70
202 15 372 59 118 142 202 203 207 14 1 93 -29 176 -65 83 -37 155 -67 160
-67 7 0 91 131 102 161 4 10 -1 10 -228 -2z"/>
<path d="M2460 1096 c0 -10 16 -13 64 -13 124 0 236 -63 236 -133 0 -91 -139
-170 -399 -224 -64 -14 -165 -30 -226 -36 -137 -15 -160 -19 -149 -29 16 -15
247 -110 344 -141 111 -37 383 -105 456 -115 l51 -6 91 77 c51 42 92 80 92 84
0 4 -34 13 -75 19 -119 20 -281 58 -408 98 -64 20 -116 38 -114 39 2 2 52 -3
113 -11 143 -19 333 -19 425 0 148 31 208 107 144 183 -51 61 -263 148 -482
197 -124 28 -163 31 -163 11z"/>
</g>
</svg>

